# Blender v2.79 (sub 0) OBJ File: 'torso.blend'
# www.blender.org
mtllib torso.mtl
o Cylinder
v -0.761432 3.179696 0.604418
v -0.817353 3.206317 0.737664
v -0.853775 3.214475 0.824391
v -0.922697 3.214475 0.895699
v -1.005056 3.214475 0.916035
v -1.087414 3.214475 0.895699
v -1.166607 3.214475 0.835470
v -1.239592 3.214475 0.737664
v -1.335789 3.163813 0.424406
v -1.295027 3.231995 0.328798
v -0.834888 0.771239 0.673161
v -0.885799 0.770324 0.863892
v -1.010229 0.780033 0.943944
v -1.143107 0.776562 0.873569
v -1.255756 0.782036 0.673161
v -0.855840 0.771819 0.788136
v -0.942488 0.777039 0.926179
v -1.296845 0.771219 0.000790
v -1.298939 0.778098 0.533063
v -1.203139 0.781517 0.788135
v -1.077970 0.779872 0.926179
v -1.351401 2.620100 0.573739
v -1.341515 2.648968 0.729871
v -0.778826 2.660754 0.858031
v -1.091759 2.657830 1.011018
v -0.820855 2.664811 0.942352
v -1.268251 2.665205 0.858126
v -1.183742 2.668185 0.953194
v -0.749713 2.653095 0.730118
v -0.996351 2.663372 1.031039
v -0.900800 2.666161 1.011507
v -0.995410 2.769676 1.085517
v -1.348494 2.775353 0.783065
v -0.816887 2.761382 0.995725
v -0.744182 2.754908 0.782395
v -1.357430 2.839627 0.759354
v -1.092775 2.772997 1.065844
v -1.186474 2.774243 1.007125
v -0.898167 2.765664 1.065475
v -0.774057 2.758285 0.910938
v -1.272807 2.775038 0.911601
v -1.189453 2.889894 1.065358
v -1.277701 2.893015 0.969258
v -0.811057 2.903272 1.055165
v -1.093921 2.903020 1.125293
v -0.767538 2.891594 0.969250
v -0.894321 2.910986 1.125744
v -0.994168 2.910150 1.145709
v -0.737795 2.872467 0.839062
v -0.764228 2.959284 1.039094
v -0.892530 2.978654 1.194217
v -1.191777 2.980139 1.128368
v -1.094686 2.989701 1.188099
v -0.733728 2.947341 0.907806
v -0.808377 2.968481 1.125040
v -0.993500 2.985757 1.211550
v -1.280955 2.971454 1.035333
v -1.281606 2.920225 1.387138
v -1.192049 2.923769 1.488154
v -0.731759 2.916654 1.231660
v -0.993354 2.935271 1.560031
v -0.891825 2.938383 1.525851
v -1.359771 2.929362 1.073208
v -1.337756 2.923728 1.242275
v -0.762584 2.925971 1.363883
v -1.094803 2.936155 1.541745
v -0.807215 2.929829 1.456199
v -0.984488 2.934466 1.559740
v -1.189807 2.923570 1.489841
v -1.089853 2.936148 1.542725
v -0.760981 3.116993 0.992919
v -1.282942 3.109977 1.016712
v -0.993106 3.120373 1.194700
v -1.332709 3.109886 0.868015
v -0.805855 3.121618 1.080783
v -0.739185 3.124372 0.830916
v -1.369236 3.124010 0.692767
v -1.095009 3.114379 1.191409
v -1.192757 3.107191 1.129529
v -0.890990 3.128689 1.150125
v -1.281283 2.869535 1.183904
v -1.094744 2.886822 1.336821
v -0.732668 2.854680 1.048340
v -0.807802 2.873218 1.261712
v -0.763423 2.866830 1.171744
v -0.892147 2.880637 1.339809
v -0.993427 2.884571 1.357054
v -1.191909 2.876671 1.277138
v -0.790956 3.226806 0.403329
v -0.834390 3.249982 0.537113
v -0.920064 3.251322 0.621951
v -0.988986 3.251322 0.693258
v -1.071344 3.251322 0.713594
v -1.153702 3.251322 0.693258
v -1.190263 3.267926 0.486933
v -0.817508 3.267926 -0.021799
v -0.957997 3.267926 0.328898
v -0.989323 3.267926 0.415625
v -1.048599 3.267926 0.486933
v -1.119431 3.267926 0.507269
v -1.311607 3.236401 0.000825
v -0.771895 3.187024 -0.010956
v -0.843273 0.750000 0.001432
v -0.761432 3.179696 -0.604418
v -0.817353 3.206317 -0.737664
v -0.853775 3.214475 -0.824391
v -0.922697 3.214475 -0.895699
v -1.005056 3.214475 -0.916035
v -1.087414 3.214475 -0.895699
v -1.166607 3.214475 -0.835470
v -1.239592 3.214475 -0.737664
v -1.335789 3.163813 -0.424406
v -1.295027 3.231995 -0.328798
v -0.834888 0.771239 -0.673161
v -0.885799 0.770324 -0.863892
v -1.010229 0.780033 -0.943944
v -1.143107 0.776562 -0.873569
v -1.255756 0.782036 -0.673161
v -0.855840 0.771819 -0.788136
v -0.942488 0.777039 -0.926179
v -1.372556 3.150398 0.000000
v -1.296845 0.771219 -0.000790
v -1.298939 0.778098 -0.533063
v -1.203139 0.781517 -0.788135
v -1.077970 0.779872 -0.926179
v -1.351401 2.620100 -0.573739
v -1.341515 2.648968 -0.729871
v -0.778826 2.660754 -0.858031
v -1.091759 2.657830 -1.011018
v -0.820855 2.664811 -0.942352
v -1.268251 2.665205 -0.858126
v -1.183742 2.668185 -0.953194
v -0.749713 2.653095 -0.730118
v -0.996351 2.663372 -1.031039
v -0.900800 2.666161 -1.011507
v -0.995410 2.769676 -1.085517
v -1.348494 2.775353 -0.783065
v -0.816887 2.761382 -0.995725
v -0.744182 2.754908 -0.782395
v -1.357430 2.839627 -0.759354
v -1.092775 2.772997 -1.065844
v -1.186474 2.774243 -1.007125
v -0.898167 2.765664 -1.065475
v -0.774057 2.758285 -0.910938
v -1.272807 2.775038 -0.911601
v -1.189453 2.889894 -1.065358
v -1.277701 2.893015 -0.969258
v -0.811057 2.903272 -1.055165
v -1.093921 2.903020 -1.125293
v -0.767538 2.891594 -0.969250
v -0.894321 2.910986 -1.125744
v -0.994168 2.910150 -1.145709
v -0.737795 2.872467 -0.839062
v -0.764228 2.959284 -1.039094
v -0.892530 2.978654 -1.194217
v -1.191777 2.980139 -1.128368
v -1.094686 2.989701 -1.188099
v -0.733728 2.947341 -0.907806
v -0.808377 2.968481 -1.125040
v -0.993500 2.985757 -1.211550
v -1.280955 2.971454 -1.035333
v -1.281606 2.920225 -1.387138
v -1.192049 2.923769 -1.488154
v -0.731759 2.916654 -1.231660
v -0.993354 2.935271 -1.560031
v -0.891825 2.938383 -1.525851
v -1.359771 2.929362 -1.073208
v -1.337756 2.923728 -1.242275
v -0.762584 2.925971 -1.363883
v -1.094803 2.936155 -1.541745
v -0.807215 2.929829 -1.456199
v -0.984488 2.934466 -1.559740
v -1.189807 2.923570 -1.489841
v -1.089853 2.936148 -1.542725
v -0.760981 3.116993 -0.992919
v -1.282942 3.109977 -1.016712
v -0.993106 3.120373 -1.194700
v -1.332709 3.109886 -0.868015
v -0.805855 3.121618 -1.080783
v -0.739185 3.124372 -0.830916
v -1.369236 3.124010 -0.692767
v -1.095009 3.114379 -1.191409
v -1.192757 3.107191 -1.129529
v -0.890990 3.128689 -1.150125
v -1.281283 2.869535 -1.183904
v -1.094744 2.886822 -1.336821
v -0.732668 2.854680 -1.048340
v -0.807802 2.873218 -1.261712
v -0.763423 2.866830 -1.171744
v -0.892147 2.880637 -1.339809
v -0.993427 2.884571 -1.357054
v -1.191909 2.876671 -1.277138
v -0.790956 3.226806 -0.403329
v -0.834390 3.249982 -0.537113
v -0.920064 3.251322 -0.621951
v -0.988986 3.251322 -0.693258
v -1.071344 3.251322 -0.713594
v -1.153702 3.251322 -0.693258
v -1.190263 3.267926 -0.486933
v -0.817508 3.267926 0.021799
v -0.957997 3.267926 -0.328898
v -0.989323 3.267926 -0.415625
v -1.048599 3.267926 -0.486933
v -1.119431 3.267926 -0.507269
v -1.311607 3.236401 -0.000825
v -1.347517 3.203000 0.000000
v -0.771895 3.187024 0.010956
v -0.843273 0.750000 -0.001432
vn -0.5758 -0.0439 0.8164
vn -0.0785 0.9965 -0.0294
vn -0.8856 -0.0512 0.4616
vn 0.9106 -0.0503 0.4103
vn -0.9997 -0.0225 0.0035
vn -0.0224 0.9986 -0.0471
vn 0.9779 -0.0489 0.2032
vn -0.2239 -0.0445 0.9736
vn 0.2224 -0.0478 0.9738
vn -0.7800 -0.0466 0.6241
vn -0.9827 -0.0414 0.1806
vn 0.1756 -0.4613 0.8697
vn -0.5074 -0.3871 0.7699
vn -0.6991 -0.3373 0.6305
vn 0.9588 -0.1698 0.2278
vn -0.8270 -0.2644 0.4961
vn -0.1767 -0.4357 0.8826
vn -0.9918 -0.0959 0.0849
vn 0.5892 -0.4032 0.7002
vn 0.8534 -0.2794 0.4401
vn 0.1776 -0.3849 0.9057
vn 0.5999 -0.3249 0.7311
vn -0.8898 -0.1479 0.4318
vn -0.4722 -0.3872 0.7919
vn 0.8594 -0.2332 0.4549
vn -0.1754 -0.3982 0.9004
vn -0.6996 -0.3363 0.6305
vn 0.9593 -0.1569 0.2347
vn 0.4425 -0.6539 0.6137
vn 0.9250 -0.2884 0.2474
vn -0.1592 -0.6133 0.7736
vn -0.8280 -0.3809 0.4114
vn -0.6308 -0.4846 0.6060
vn -0.3990 -0.5360 0.7440
vn 0.1132 -0.6806 0.7239
vn 0.7467 -0.4976 0.4413
vn -0.1402 -0.8172 -0.5590
vn 0.9605 -0.2305 -0.1560
vn -0.5010 -0.7149 -0.4878
vn 0.5538 -0.6855 -0.4726
vn -0.9338 -0.2991 -0.1963
vn -0.7862 -0.5088 -0.3506
vn 0.3978 -0.7540 -0.5227
vn 0.0973 -0.8178 -0.5672
vn 0.1237 0.8853 0.4483
vn -0.4399 0.6121 0.6571
vn -0.3376 0.8383 0.4281
vn -0.4801 0.7803 0.4008
vn -0.7700 0.5711 0.2845
vn -0.0702 0.8895 0.4515
vn 0.9293 0.3310 0.1640
vn 0.4135 0.8111 0.4138
vn 0.7104 0.6251 0.3234
vn -0.9240 0.3392 0.1766
vn -0.2501 0.9178 0.3084
vn -0.1978 0.9729 0.1196
vn 0.6459 0.7537 0.1209
vn -0.3541 0.8904 0.2861
vn 0.0678 0.9470 0.3140
vn 0.2928 0.9159 0.2747
vn -0.6576 0.7427 0.1262
vn 0.5303 0.8271 0.1864
vn -0.0718 0.9447 0.3200
vn -0.5834 -0.7936 0.1724
vn -0.9131 -0.3938 0.1058
vn 0.6794 -0.6992 0.2224
vn -0.0179 -0.9743 0.2245
vn 0.0630 -0.9625 0.2638
vn 0.1588 -0.9456 0.2838
vn -0.1877 -0.9560 0.2255
vn 0.4281 -0.8662 0.2577
vn -0.0602 -0.9695 0.2378
vn 0.0410 0.9853 0.1659
vn 0.1380 0.9814 0.1334
vn 0.2652 0.9546 0.1359
vn 0.6334 0.7656 0.1129
vn -0.7598 0.6370 0.1303
vn -0.3435 0.9162 0.2062
vn -0.0479 0.9798 0.1940
vn -0.0225 0.9961 0.0848
vn 0.0791 0.9958 0.0462
vn 0.0662 0.9960 0.0595
vn 0.0199 0.9970 0.0750
vn 0.2229 0.9741 0.0380
vn 0.8679 0.4966 -0.0078
vn -0.8182 0.5711 0.0659
vn 0.9982 0.0468 -0.0370
vn 1.0000 0.0026 -0.0058
vn 0.9996 0.0294 -0.0033
vn -0.9992 -0.0405 0.0041
vn 0.9987 -0.0354 -0.0357
vn -0.0318 -0.9993 0.0206
vn -0.3659 0.9223 0.1246
vn 0.6908 -0.0507 0.7212
vn 0.6518 0.7541 0.0810
vn -0.5758 -0.0439 -0.8164
vn -0.0785 0.9965 0.0294
vn -0.8856 -0.0512 -0.4616
vn 0.9106 -0.0503 -0.4103
vn -0.9997 -0.0225 -0.0035
vn -0.0224 0.9986 0.0471
vn 0.9779 -0.0489 -0.2032
vn -0.2239 -0.0445 -0.9736
vn 0.2224 -0.0478 -0.9738
vn -0.7800 -0.0466 -0.6241
vn -0.9827 -0.0414 -0.1806
vn 0.1756 -0.4613 -0.8697
vn -0.5074 -0.3871 -0.7699
vn -0.6991 -0.3373 -0.6305
vn 0.9588 -0.1698 -0.2278
vn -0.8270 -0.2644 -0.4961
vn -0.1767 -0.4357 -0.8826
vn -0.9918 -0.0959 -0.0849
vn 0.5892 -0.4032 -0.7002
vn 0.8534 -0.2794 -0.4401
vn 0.1776 -0.3849 -0.9057
vn 0.5999 -0.3249 -0.7311
vn -0.8898 -0.1479 -0.4318
vn -0.4722 -0.3872 -0.7919
vn 0.8594 -0.2332 -0.4549
vn -0.1754 -0.3982 -0.9004
vn -0.6996 -0.3363 -0.6305
vn 0.9593 -0.1569 -0.2347
vn 0.4425 -0.6539 -0.6137
vn 0.9250 -0.2884 -0.2474
vn -0.1592 -0.6133 -0.7736
vn -0.8280 -0.3809 -0.4114
vn -0.6308 -0.4846 -0.6060
vn -0.3990 -0.5360 -0.7440
vn 0.1132 -0.6806 -0.7239
vn 0.7467 -0.4976 -0.4413
vn -0.1402 -0.8172 0.5590
vn 0.9605 -0.2305 0.1560
vn -0.5010 -0.7149 0.4878
vn 0.5538 -0.6855 0.4726
vn -0.9338 -0.2991 0.1963
vn -0.7863 -0.5088 0.3506
vn 0.3978 -0.7540 0.5227
vn 0.0973 -0.8178 0.5672
vn 0.1237 0.8853 -0.4483
vn -0.4399 0.6121 -0.6571
vn -0.3376 0.8383 -0.4281
vn -0.4801 0.7803 -0.4008
vn -0.7700 0.5711 -0.2845
vn -0.0702 0.8895 -0.4515
vn 0.9293 0.3310 -0.1640
vn 0.4135 0.8111 -0.4138
vn 0.7104 0.6251 -0.3234
vn -0.9240 0.3392 -0.1766
vn -0.2501 0.9178 -0.3084
vn -0.1978 0.9729 -0.1196
vn 0.6459 0.7537 -0.1209
vn -0.3541 0.8904 -0.2861
vn 0.0678 0.9470 -0.3140
vn 0.2928 0.9159 -0.2747
vn -0.6576 0.7427 -0.1262
vn 0.5303 0.8271 -0.1864
vn -0.0718 0.9447 -0.3200
vn -0.5834 -0.7936 -0.1724
vn -0.9131 -0.3938 -0.1058
vn 0.6794 -0.6992 -0.2224
vn -0.0179 -0.9743 -0.2245
vn 0.0630 -0.9625 -0.2638
vn 0.1588 -0.9456 -0.2838
vn -0.1877 -0.9560 -0.2255
vn 0.4281 -0.8662 -0.2577
vn -0.0602 -0.9695 -0.2378
vn 0.0410 0.9853 -0.1659
vn 0.1380 0.9814 -0.1334
vn 0.2652 0.9546 -0.1359
vn 0.6334 0.7656 -0.1129
vn -0.7598 0.6370 -0.1303
vn -0.3435 0.9162 -0.2062
vn -0.0479 0.9798 -0.1940
vn -0.0225 0.9961 -0.0848
vn 0.0791 0.9958 -0.0462
vn 0.0662 0.9960 -0.0595
vn 0.0199 0.9970 -0.0750
vn 0.2229 0.9741 -0.0380
vn 0.8679 0.4966 0.0078
vn -0.8182 0.5711 -0.0659
vn 0.9982 0.0468 0.0370
vn 1.0000 0.0026 0.0058
vn 0.9996 0.0294 0.0033
vn -0.9992 -0.0405 -0.0041
vn 0.9987 -0.0354 0.0357
vn -0.0318 -0.9993 -0.0206
vn -0.3659 0.9223 -0.1246
vn 0.6908 -0.0507 -0.7212
vn 0.6518 0.7541 -0.0810
usemtl None
s off
f 14//1 21//1 25//1 28//1
f 10//2 95//2 100//2 99//2 98//2 97//2 96//2 101//2
f 15//3 20//3 27//3 23//3
f 12//4 16//4 24//4 26//4
f 9//5 121//5 18//5 19//5 22//5 36//5 77//5
f 102//6 121//6 9//6 8//6 7//6 6//6 5//6 4//6 3//6 2//6 1//6
f 16//7 11//7 29//7 24//7
f 13//8 30//8 25//8 21//8
f 17//9 31//9 30//9 13//9
f 20//10 14//10 28//10 27//10
f 19//11 15//11 23//11 22//11
f 30//12 31//12 39//12 32//12
f 28//13 25//13 37//13 38//13
f 27//14 28//14 38//14 41//14
f 24//15 29//15 35//15 40//15
f 23//16 27//16 41//16 33//16
f 25//17 30//17 32//17 37//17
f 22//18 23//18 33//18 36//18
f 31//19 26//19 34//19 39//19
f 26//20 24//20 40//20 34//20
f 32//21 39//21 47//21 48//21
f 39//22 34//22 44//22 47//22
f 33//23 41//23 43//23 36//23
f 38//24 37//24 45//24 42//24
f 34//25 40//25 46//25 44//25
f 37//26 32//26 48//26 45//26
f 41//27 38//27 42//27 43//27
f 40//28 35//28 49//28 46//28
f 47//29 44//29 55//29 51//29
f 46//30 49//30 54//30 50//30
f 45//31 48//31 56//31 53//31
f 36//32 43//32 57//32
f 43//33 42//33 52//33 57//33
f 42//34 45//34 53//34 52//34
f 48//35 47//35 51//35 56//35
f 44//36 46//36 50//36 55//36
f 56//37 51//37 86//37 87//37
f 36//38 57//38 81//38
f 51//39 55//39 84//39 86//39
f 57//40 52//40 88//40 81//40
f 50//41 54//41 83//41 85//41
f 55//42 50//42 85//42 84//42
f 52//43 53//43 82//43 88//43
f 53//44 56//44 87//44 82//44
f 61//45 68//45 62//45 80//45 73//45
f 59//46 69//46 66//46
f 59//47 66//47 78//47 79//47
f 58//48 59//48 79//48 72//48
f 64//49 58//49 72//49 74//49
f 66//50 70//50 61//50 73//50 78//50
f 65//51 60//51 76//51 71//51
f 62//52 67//52 75//52 80//52
f 67//53 65//53 71//53 75//53
f 63//54 64//54 74//54 77//54
f 79//55 78//55 6//55 7//55
f 77//56 74//56 9//56
f 71//57 76//57 1//57 2//57
f 72//58 79//58 7//58 8//58
f 73//59 80//59 4//59 5//59
f 80//60 75//60 3//60 4//60
f 74//61 72//61 8//61 9//61
f 75//62 71//62 2//62 3//62
f 78//63 73//63 5//63 6//63
f 36//64 81//64 58//64 64//64
f 36//65 64//65 63//65
f 85//66 83//66 60//66 65//66
f 88//67 82//67 66//67 69//67 59//67
f 87//68 86//68 62//68 68//68 61//68
f 86//69 84//69 67//69 62//69
f 81//70 88//70 59//70 58//70
f 84//71 85//71 65//71 67//71
f 82//72 87//72 61//72 70//72 66//72
f 5//73 4//73 92//73 93//73
f 4//74 3//74 91//74 92//74
f 3//75 2//75 90//75 91//75
f 2//76 1//76 90//76
f 9//77 8//77 10//77
f 7//78 6//78 94//78 95//78
f 6//79 5//79 93//79 94//79
f 94//80 93//80 100//80 95//80
f 91//81 90//81 97//81 98//81
f 92//82 91//82 98//82 99//82
f 93//83 92//83 99//83 100//83
f 90//84 89//84 96//84 97//84
f 89//85 1//85 102//85 96//85
f 101//86 206//86 121//86 9//86 10//86
f 49//87 102//87 1//87 76//87 54//87
f 54//88 60//88 83//88
f 76//89 60//89 54//89
f 77//90 36//90 63//90
f 103//91 102//91 49//91 35//91 29//91 11//91
f 13//92 21//92 14//92 20//92 15//92 19//92 18//92 103//92 11//92 16//92 12//92 17//92
f 95//93 10//93 8//93 7//93
f 12//94 26//94 31//94 17//94
f 90//95 1//95 89//95
f 117//96 132//96 129//96 125//96
f 113//97 205//97 200//97 201//97 202//97 203//97 204//97 199//97
f 118//98 127//98 131//98 124//98
f 115//99 130//99 128//99 119//99
f 112//100 181//100 140//100 126//100 123//100 122//100 121//100
f 207//101 104//101 105//101 106//101 107//101 108//101 109//101 110//101 111//101 112//101 121//101
f 119//102 128//102 133//102 114//102
f 116//103 125//103 129//103 134//103
f 120//104 116//104 134//104 135//104
f 124//105 131//105 132//105 117//105
f 123//106 126//106 127//106 118//106
f 134//107 136//107 143//107 135//107
f 132//108 142//108 141//108 129//108
f 131//109 145//109 142//109 132//109
f 128//110 144//110 139//110 133//110
f 127//111 137//111 145//111 131//111
f 129//112 141//112 136//112 134//112
f 126//113 140//113 137//113 127//113
f 135//114 143//114 138//114 130//114
f 130//115 138//115 144//115 128//115
f 136//116 152//116 151//116 143//116
f 143//117 151//117 148//117 138//117
f 137//118 140//118 147//118 145//118
f 142//119 146//119 149//119 141//119
f 138//120 148//120 150//120 144//120
f 141//121 149//121 152//121 136//121
f 145//122 147//122 146//122 142//122
f 144//123 150//123 153//123 139//123
f 151//124 155//124 159//124 148//124
f 150//125 154//125 158//125 153//125
f 149//126 157//126 160//126 152//126
f 140//127 161//127 147//127
f 147//128 161//128 156//128 146//128
f 146//129 156//129 157//129 149//129
f 152//130 160//130 155//130 151//130
f 148//131 159//131 154//131 150//131
f 160//132 191//132 190//132 155//132
f 140//133 185//133 161//133
f 155//134 190//134 188//134 159//134
f 161//135 185//135 192//135 156//135
f 154//136 189//136 187//136 158//136
f 159//137 188//137 189//137 154//137
f 156//138 192//138 186//138 157//138
f 157//139 186//139 191//139 160//139
f 165//140 177//140 184//140 166//140 172//140
f 163//141 170//141 173//141
f 163//142 183//142 182//142 170//142
f 162//143 176//143 183//143 163//143
f 168//144 178//144 176//144 162//144
f 170//145 182//145 177//145 165//145 174//145
f 169//146 175//146 180//146 164//146
f 166//147 184//147 179//147 171//147
f 171//148 179//148 175//148 169//148
f 167//149 181//149 178//149 168//149
f 183//150 110//150 109//150 182//150
f 181//151 112//151 178//151
f 175//152 105//152 104//152 180//152
f 176//153 111//153 110//153 183//153
f 177//154 108//154 107//154 184//154
f 184//155 107//155 106//155 179//155
f 178//156 112//156 111//156 176//156
f 179//157 106//157 105//157 175//157
f 182//158 109//158 108//158 177//158
f 140//159 168//159 162//159 185//159
f 140//160 167//160 168//160
f 189//161 169//161 164//161 187//161
f 192//162 163//162 173//162 170//162 186//162
f 191//163 165//163 172//163 166//163 190//163
f 190//164 166//164 171//164 188//164
f 185//165 162//165 163//165 192//165
f 188//166 171//166 169//166 189//166
f 186//167 170//167 174//167 165//167 191//167
f 108//168 197//168 196//168 107//168
f 107//169 196//169 195//169 106//169
f 106//170 195//170 194//170 105//170
f 105//171 194//171 104//171
f 112//172 113//172 111//172
f 110//173 199//173 198//173 109//173
f 109//174 198//174 197//174 108//174
f 198//175 199//175 204//175 197//175
f 195//176 202//176 201//176 194//176
f 196//177 203//177 202//177 195//177
f 197//178 204//178 203//178 196//178
f 194//179 201//179 200//179 193//179
f 193//180 200//180 207//180 104//180
f 205//181 113//181 112//181 121//181 206//181
f 153//182 158//182 180//182 104//182 207//182
f 158//183 187//183 164//183
f 180//184 158//184 164//184
f 181//185 167//185 140//185
f 208//186 114//186 133//186 139//186 153//186 207//186
f 116//187 120//187 115//187 119//187 114//187 208//187 122//187 123//187 118//187 124//187 117//187 125//187
f 199//188 110//188 111//188 113//188
f 115//189 120//189 135//189 130//189
f 194//190 193//190 104//190
